<svg height="90" width="90" xmlns="http://www.w3.org/2000/svg"><g fill="none"><path d="M65.7 52.2H47.232V41.31c0-.99.81-1.8 1.8-1.8H63.9c.99 0 1.8.81 1.8 1.8z" fill="#abd1ff"/><path d="M47.232 49.05H65.7v3.15H47.232z" fill="#aaadad"/><path d="M69.246 56.646H20.754c-1.224 0-2.214-.99-2.214-2.214s.99-2.214 2.214-2.214h48.474c1.224 0 2.214.99 2.214 2.214a2.197 2.197 0 0 1-2.196 2.214z" fill="#ffece9"/><path d="M69.246 57.546h-9.414c-.504 0-.9-.396-.9-.9s.396-.9.9-.9h9.414c.72 0 1.314-.594 1.314-1.314s-.594-1.314-1.314-1.314H20.754c-.72 0-1.314.594-1.314 1.314s.594 1.314 1.314 1.314h10.38c.158 0 .06 1.8.217 1.8H46c.187 0 .33-1.8.5-1.8h4.332c.504 0 .9.396.9.9s-.396.9-.9.9H20.754c-1.728 0-3.114-1.404-3.114-3.114s1.404-3.114 3.114-3.114H31c.159 0-.228 1.8 0 1.8h15.768c.21 0-.183-1.8 0-1.8h22.46a3.115 3.115 0 0 1 .018 6.228z" fill="#1c1d21"/><path d="M56.466 57.546H55.26c-.504 0-.9-.396-.9-.9s.396-.9.9-.9h1.206c.504 0 .9.396.9.9s-.396.9-.9.9z" fill="#1c1d21"/><path d="M45 90c-12.222 0-23.652-4.824-32.184-13.554a.885.885 0 0 1-.18-.972.898.898 0 0 1 .828-.558h63.09c.36 0 .684.216.828.558s.072.72-.18.972C68.652 85.176 57.222 90 45 90zM15.66 76.716C23.67 84.132 34.002 88.2 45 88.2s21.33-4.068 29.34-11.484z" fill="#525f7f"/><path d="M45 90c-12.024 0-23.328-4.68-31.824-13.176S0 57.024 0 45s4.68-23.328 13.176-31.824S32.976 0 45 0s23.328 4.68 31.824 13.176S90 32.976 90 45s-4.68 23.328-13.176 31.824S57.024 90 45 90zm0-88.2C21.186 1.8 1.8 21.186 1.8 45S21.186 88.2 45 88.2 88.2 68.814 88.2 45 68.814 1.8 45 1.8z" fill="#525f7f"/><path d="M23.49 56.646h3.33v19.17h-3.33z" fill="#c67552"/><path d="M26.82 76.716h-3.33a.891.891 0 0 1-.9-.9v-19.17c0-.504.396-.9.9-.9h3.33c.504 0 .9.396.9.9v19.17c0 .486-.396.9-.9.9zm-2.43-1.8h1.53v-17.37h-1.53z" fill="#1c1d21"/><path d="M63.18 56.646h3.33v19.17h-3.33z" fill="#c67552"/><path d="M66.51 76.716h-3.33a.891.891 0 0 1-.9-.9v-19.17c0-.504.396-.9.9-.9h3.33c.504 0 .9.396.9.9v19.17c0 .486-.396.9-.9.9zm-2.43-1.8h1.53v-17.37h-1.53z" fill="#1c1d21"/><path d="M41.832 60.966h-6.246a5.393 5.393 0 0 1-5.4-5.4v-9.234c0-2.988 2.412-5.4 5.4-5.4h6.246c2.988 0 5.4 2.412 5.4 5.4v9.234c0 2.97-2.412 5.4-5.4 5.4z" fill="#ffece9"/><path d="M44.532 67.824H32.886a2.696 2.696 0 0 1-2.7-2.7v-1.476c0-1.494 1.206-2.7 2.7-2.7h11.646c1.494 0 2.7 1.206 2.7 2.7v1.476c0 1.494-1.206 2.7-2.7 2.7z" fill="#ffece9"/><path d="M41.832 61.866h-6.246a6.307 6.307 0 0 1-6.3-6.3v-9.234c0-3.474 2.826-6.3 6.3-6.3h6.246c3.474 0 6.3 2.826 6.3 6.3v9.234c0 3.474-2.826 6.3-6.3 6.3zm-6.228-20.052a4.502 4.502 0 0 0-4.5 4.5v9.234c0 2.484 2.016 4.5 4.5 4.5h6.246c2.484 0 4.5-2.016 4.5-4.5v-9.234c0-2.484-2.016-4.5-4.5-4.5z" fill="#1c1d21"/><path d="M33.804 47.88a.891.891 0 0 1-.9-.9v-.666c0-.504.396-.9.9-.9s.9.396.9.9v.666c0 .504-.414.9-.9.9z" fill="#fff"/><path d="M44.532 68.724H32.886a3.61 3.61 0 0 1-3.6-3.6v-1.476c0-1.98 1.62-3.6 3.6-3.6h11.646c1.98 0 3.6 1.62 3.6 3.6v1.476c0 1.998-1.62 3.6-3.6 3.6zm-11.628-6.858c-.99 0-1.8.81-1.8 1.8v1.476c0 .99.81 1.8 1.8 1.8H44.55c.99 0 1.8-.81 1.8-1.8v-1.476c0-.99-.81-1.8-1.8-1.8z" fill="#1c1d21"/><path d="M33.138 67.824h3.33v7.974h-3.33zm7.83 0h3.33v7.974h-3.33z" fill="#c67552"/><path d="M36.468 76.716h-3.33a.891.891 0 0 1-.9-.9v-7.974c0-.504.396-.9.9-.9h3.33c.504 0 .9.396.9.9v7.974c0 .486-.414.9-.9.9zm-2.43-1.8h1.53v-6.174h-1.53zm10.26 1.8h-3.33a.891.891 0 0 1-.9-.9v-7.974c0-.504.396-.9.9-.9h3.33c.504 0 .9.396.9.9v7.974c0 .486-.414.9-.9.9zm-2.43-1.8h1.53v-6.174h-1.53zM65.7 53.1H47.232a.891.891 0 0 1-.9-.9V41.31c0-1.494 1.206-2.7 2.7-2.7H63.9c1.494 0 2.7 1.206 2.7 2.7V52.2c0 .504-.396.9-.9.9zm-17.568-1.8H64.8v-9.99c0-.504-.396-.9-.9-.9H49.032c-.504 0-.9.396-.9.9zM12.024 75.168a.891.891 0 0 1-.9-.9V45.576c0-.504.396-.9.9-.9s.9.396.9.9v28.692c0 .504-.414.9-.9.9z" fill="#1c1d21"/><path d="M77.904 34.02c-1.908 1.098-3.186 3.168-3.186 5.526s1.278 4.41 3.186 5.526c1.908-1.098 3.186-3.168 3.186-5.526s-1.278-4.428-3.186-5.526z" fill="#0abfb2"/><path d="M77.904 45.954a.812.812 0 0 1-.45-.126c-2.25-1.296-3.636-3.708-3.636-6.3s1.386-5.004 3.636-6.3a.894.894 0 0 1 .9 0c2.25 1.296 3.636 3.708 3.636 6.3s-1.386 5.004-3.636 6.3a.855.855 0 0 1-.45.126zm0-10.872a5.5 5.5 0 0 0-2.286 4.446 5.5 5.5 0 0 0 2.286 4.446 5.5 5.5 0 0 0 2.286-4.446 5.5 5.5 0 0 0-2.286-4.446z" fill="#1c1d21"/><path d="M77.904 75.168a.891.891 0 0 1-.9-.9V45.576c0-.504.396-.9.9-.9s.9.396.9.9v28.692c0 .504-.414.9-.9.9z" fill="#1c1d21"/><path d="M70.758 40.878c1.89-.504 3.996-.018 5.49 1.476s1.98 3.582 1.476 5.49c-1.89.504-3.996.018-5.49-1.476s-1.98-3.6-1.476-5.49z" fill="#0abfb2"/><path d="M76.248 48.924a6.61 6.61 0 0 1-4.662-1.926 6.627 6.627 0 0 1-1.71-6.354c.09-.306.324-.558.63-.63 2.268-.612 4.698.054 6.354 1.71s2.304 4.086 1.71 6.354c-.09.306-.324.558-.63.63a6.816 6.816 0 0 1-1.692.216zm-4.734-7.29c-.216 1.494.27 3.006 1.35 4.086s2.592 1.566 4.086 1.35c.216-1.494-.27-3.006-1.35-4.086s-2.592-1.566-4.086-1.35z" fill="#1c1d21"/><path d="M78.102 47.826c1.89.504 3.996.018 5.49-1.476s1.98-3.582 1.476-5.49c-1.89-.504-3.996-.018-5.49 1.476s-1.998 3.6-1.476 5.49z" fill="#0abfb2"/><path d="M79.56 48.924a6.816 6.816 0 0 1-1.692-.216c-.306-.09-.558-.324-.63-.63-.612-2.268.054-4.698 1.71-6.354s4.086-2.304 6.354-1.71c.306.09.558.324.63.63a6.584 6.584 0 0 1-1.71 6.354 6.674 6.674 0 0 1-4.662 1.926zm-.702-1.854c1.494.216 3.006-.27 4.086-1.35s1.566-2.592 1.35-4.086c-1.494-.216-3.006.27-4.086 1.35s-1.584 2.592-1.35 4.086z" fill="#1c1d21"/><path d="M12.096 34.02c-1.908 1.098-3.186 3.168-3.186 5.526s1.278 4.41 3.186 5.526c1.908-1.098 3.186-3.168 3.186-5.526s-1.278-4.428-3.186-5.526z" fill="#0abfb2"/><path d="M12.096 45.954a.812.812 0 0 1-.45-.126c-2.25-1.296-3.636-3.708-3.636-6.3s1.386-5.004 3.636-6.3a.894.894 0 0 1 .9 0c2.25 1.296 3.636 3.708 3.636 6.3s-1.386 5.004-3.636 6.3a.812.812 0 0 1-.45.126zm0-10.872a5.5 5.5 0 0 0-2.286 4.446 5.5 5.5 0 0 0 2.286 4.446 5.5 5.5 0 0 0 2.286-4.446 5.5 5.5 0 0 0-2.286-4.446z" fill="#1c1d21"/><path d="M4.95 40.878c1.89-.504 3.996-.018 5.49 1.476s1.98 3.582 1.476 5.49c-1.89.504-3.996.018-5.49-1.476s-1.98-3.6-1.476-5.49z" fill="#0abfb2"/><path d="M10.44 48.924a6.61 6.61 0 0 1-4.662-1.926 6.627 6.627 0 0 1-1.71-6.354c.09-.306.324-.558.63-.63 2.268-.612 4.698.054 6.354 1.71s2.304 4.086 1.71 6.354c-.09.306-.324.558-.63.63a6.71 6.71 0 0 1-1.692.216zm-4.734-7.29c-.216 1.494.27 3.006 1.35 4.086s2.592 1.566 4.086 1.35a4.792 4.792 0 0 0-1.35-4.086c-1.062-1.08-2.592-1.566-4.086-1.35z" fill="#1c1d21"/><path d="M12.294 47.826c1.89.504 3.996.018 5.49-1.476s1.98-3.582 1.476-5.49c-1.89-.504-3.996-.018-5.49 1.476s-1.98 3.6-1.476 5.49z" fill="#0abfb2"/><path d="M13.752 48.924a6.816 6.816 0 0 1-1.692-.216c-.306-.09-.558-.324-.63-.63-.612-2.268.054-4.698 1.71-6.354s4.086-2.304 6.354-1.71c.306.09.558.324.63.63a6.584 6.584 0 0 1-6.372 8.28zm-.702-1.854c1.494.216 3.006-.27 4.086-1.35s1.566-2.592 1.35-4.086c-1.494-.216-3.006.27-4.086 1.35s-1.566 2.592-1.35 4.086z" fill="#1c1d21"/><path d="M23.616 13.554c.9 0 1.638.738 1.638 1.638s-.738 1.638-1.638 1.638h-.72c-1.278 0-2.322 1.044-2.322 2.322s1.044 2.322 2.322 2.322h19.386c1.278 0 2.322-1.044 2.322-2.322s-1.044-2.322-2.322-2.322H30.636c-.9 0-1.638-.738-1.638-1.638s.738-1.638 1.638-1.638h.828c1.728 0 3.132-1.404 3.132-3.132S33.192 7.29 31.464 7.29h-9.342a44.374 44.374 0 0 0-8.028 6.264z" fill="#ffece9"/><path d="M36.504 22.356h-1.17c-.504 0-.9-.396-.9-.9s.396-.9.9-.9h1.17c.504 0 .9.396.9.9s-.396.9-.9.9z" fill="#1c1d21"/><path d="M42.282 22.356H39.78c-.504 0-.9-.396-.9-.9s.396-.9.9-.9h2.502c.792 0 1.422-.63 1.422-1.422s-.63-1.422-1.422-1.422H30.636c-1.404 0-2.538-1.134-2.538-2.538s1.134-2.538 2.538-2.538h.828c1.224 0 2.232-1.008 2.232-2.232s-1.008-2.232-2.232-2.232h-9.09a41.123 41.123 0 0 0-5.994 4.464h7.236c1.404 0 2.538 1.134 2.538 2.538s-1.134 2.538-2.538 2.538h-.72c-.792 0-1.422.63-1.422 1.422s.63 1.422 1.422 1.422h8.712c.504 0 .9.396.9.9s-.396.9-.9.9h-8.712c-1.782 0-3.222-1.44-3.222-3.222s1.44-3.222 3.222-3.222h.72a.741.741 0 0 0 .738-.738.741.741 0 0 0-.738-.738h-9.522c-.36 0-.702-.216-.828-.558s-.054-.72.198-.99a45.992 45.992 0 0 1 8.19-6.39.872.872 0 0 1 .468-.126h9.342c2.214 0 4.032 1.8 4.032 4.032 0 2.214-1.8 4.032-4.032 4.032h-.828a.741.741 0 0 0-.738.738c0 .396.324.738.738.738h11.646c1.782 0 3.222 1.44 3.222 3.222s-1.458 3.222-3.222 3.222z" fill="#1c1d21"/><path d="M52.074 7.29h-7.632c-1.746 0-3.24 1.44-3.204 3.186a3.131 3.131 0 0 0 3.132 3.06h7.704a3.134 3.134 0 0 0 3.132-3.132c0-1.71-1.404-3.114-3.132-3.114z" fill="#ffece9"/><path d="M52.074 14.454H44.37c-2.178 0-3.978-1.764-4.032-3.96a3.998 3.998 0 0 1 1.152-2.862 4.156 4.156 0 0 1 2.952-1.242h2.826c.504 0 .9.396.9.9s-.396.9-.9.9h-2.826c-.63 0-1.224.252-1.674.702-.414.432-.648.99-.63 1.566.018 1.206 1.026 2.178 2.232 2.178h7.704c1.224 0 2.232-1.008 2.232-2.232s-1.008-2.232-2.232-2.232h-1.512c-.504 0-.9-.396-.9-.9s.396-.9.9-.9h1.512c2.214 0 4.032 1.8 4.032 4.032a4.04 4.04 0 0 1-4.032 4.05z" fill="#1c1d21"/><circle cx="64.638" cy="20.52" fill="#ff8939" r="4.824"/><path d="M64.638 26.244c-3.15 0-5.724-2.574-5.724-5.724s2.574-5.724 5.724-5.724 5.724 2.574 5.724 5.724-2.574 5.724-5.724 5.724zm0-9.648c-2.16 0-3.924 1.764-3.924 3.924s1.764 3.924 3.924 3.924 3.924-1.764 3.924-3.924-1.764-3.924-3.924-3.924zm0-2.772a.891.891 0 0 1-.9-.9v-.576c0-.504.396-.9.9-.9s.9.396.9.9v.576c0 .486-.396.9-.9.9zm0 15.768a.891.891 0 0 1-.9-.9v-.576c0-.504.396-.9.9-.9s.9.396.9.9v.576c0 .504-.396.9-.9.9zm5.382-13.554a.844.844 0 0 1-.63-.27.891.891 0 0 1 0-1.278l.396-.396c.36-.36.918-.36 1.278 0s.36.918 0 1.278l-.396.396a.914.914 0 0 1-.648.27zm-11.16 11.16a.844.844 0 0 1-.63-.27.891.891 0 0 1 0-1.278l.396-.396c.36-.36.918-.36 1.278 0s.36.918 0 1.278l-.396.396a.914.914 0 0 1-.648.27zm13.95-5.778h-.576c-.504 0-.9-.396-.9-.9s.396-.9.9-.9h.576c.504 0 .9.396.9.9s-.396.9-.9.9zm-15.768 0h-.576c-.504 0-.9-.396-.9-.9s.396-.9.9-.9h.576c.504 0 .9.396.9.9s-.414.9-.9.9zm13.374 5.778a.844.844 0 0 1-.63-.27l-.396-.396c-.36-.36-.36-.918 0-1.278s.918-.36 1.278 0l.396.396c.36.36.36.918 0 1.278a.914.914 0 0 1-.648.27zm-11.142-11.16a.844.844 0 0 1-.63-.27l-.396-.396c-.36-.36-.36-.918 0-1.278s.918-.36 1.278 0l.396.396c.36.36.36.918 0 1.278a.979.979 0 0 1-.648.27zM65.7 49.914H47.394c-.504 0-.9-.396-.9-.9s.396-.9.9-.9H65.7c.504 0 .9.396.9.9s-.396.9-.9.9z" fill="#1c1d21"/></g></svg>